<?xml version="1.0" encoding="utf-8"?>
<!-- Generator: Adobe Illustrator 23.0.3, SVG Export Plug-In . SVG Version: 6.00 Build 0)  -->
<svg version="1.1" xmlns="http://www.w3.org/2000/svg" xmlns:xlink="http://www.w3.org/1999/xlink" x="0px" y="0px"
	 viewBox="0 0 1920 1080" style="enable-background:new 0 0 1920 1080;" xml:space="preserve" preserveAspectRatio="none">
<style type="text/css">
	.st0{fill:url(#SVGID_1_);}
	.st1{fill:url(#SVGID_2_);}
	.st2{fill:url(#SVGID_3_);}
	.st3{fill:url(#SVGID_4_);}
	.st4{fill:url(#SVGID_5_);}
	.st5{fill:url(#SVGID_6_);}
	.st6{fill:url(#SVGID_7_);}
	.st7{fill:url(#SVGID_8_);}
	.st8{fill:url(#SVGID_9_);}
	.st9{fill:url(#SVGID_10_);}
	.st10{fill:#FFFF00;}
	.st11{fill:url(#SVGID_11_);stroke:url(#SVGID_12_);stroke-miterlimit:10;}
	.st12{fill:#FFFF00;stroke:#000000;stroke-miterlimit:10;}
	.st13{fill:#444441;stroke:#000000;stroke-miterlimit:10;}
	.st14{fill:url(#SVGID_13_);stroke:url(#SVGID_14_);stroke-miterlimit:10;}
	.st15{fill:url(#SVGID_15_);stroke:#000000;stroke-miterlimit:10;}
</style>
<g id="Background">
	<g>
		<linearGradient id="SVGID_1_" gradientUnits="userSpaceOnUse" x1="966.5" y1="1084" x2="966.5" y2="-5">
			<stop  offset="0.0902" style="stop-color:#1E9CD7"/>
			<stop  offset="0.9037" style="stop-color:#00338C"/>
		</linearGradient>
		<rect x="0" y="-5" class="st0" width="1933" height="1089"/>
	</g>
	
		<linearGradient id="SVGID_2_" gradientUnits="userSpaceOnUse" x1="277.6504" y1="58.2653" x2="329.8312" y2="58.2653" gradientTransform="matrix(0.9072 -0.2322 0.2312 0.9091 -15.3441 100.0845)">
		<stop  offset="0.0902" style="stop-color:#1E9CD7"/>
		<stop  offset="0.9037" style="stop-color:#FFFFFD"/>
	</linearGradient>
	<!-- <polygon class="st1" points="284.47,105.85 269.95,95.82 253.46,102.13 258.5,85.18 247.43,71.42 265.07,70.97 274.71,56.16 
		280.57,72.84 297.61,77.44 283.59,88.19 	"/>
	
		<linearGradient id="SVGID_3_" gradientUnits="userSpaceOnUse" x1="-276.1909" y1="802.8807" x2="-199.0239" y2="802.8807" gradientTransform="matrix(0.6555 -1.175057e-03 -1.175057e-03 0.675 243.2593 162.5246)">
		<stop  offset="0.0902" style="stop-color:#1E9CD7"/>
		<stop  offset="0.9037" style="stop-color:#FCFCFA"/>
	</linearGradient>
	<polygon class="st2" points="100.36,729.96 85.24,720.56 69.1,728.08 73.17,710.34 61.28,696.88 78.92,695.32 87.71,679.48 
		94.55,696.26 111.86,699.92 98.45,711.86 	"/>
	
		<linearGradient id="SVGID_4_" gradientUnits="userSpaceOnUse" x1="1730.6017" y1="351.5474" x2="1807.7688" y2="351.5474" gradientTransform="matrix(0.6555 -1.175057e-03 -1.175057e-03 0.675 243.2593 162.5246)">
		<stop  offset="0.0902" style="stop-color:#1E9CD7"/>
		<stop  offset="0.9037" style="stop-color:#FCFCFA"/>
	</linearGradient>
	<polygon class="st3" points="1416.36,422.96 1401.24,413.56 1385.1,421.08 1389.17,403.34 1377.28,389.88 1394.92,388.32 
		1403.71,372.48 1410.55,389.26 1427.86,392.92 1414.45,404.86 	"/>
	
		<linearGradient id="SVGID_5_" gradientUnits="userSpaceOnUse" x1="1731.3491" y1="851.4376" x2="1808.5161" y2="851.4376" gradientTransform="matrix(0.2358 -3.715812e-03 -3.715812e-03 0.2973 888.2455 389.9874)">
		<stop  offset="0.0902" style="stop-color:#1E9CD7"/>
		<stop  offset="0.9037" style="stop-color:#FCFCFA"/>
	</linearGradient>
	<polygon class="st4" points="1307.22,647.63 1301.82,643.56 1295.98,646.95 1297.53,639.12 1293.32,633.25 1299.67,632.47 
		1302.91,625.45 1305.29,632.81 1311.5,634.34 1306.62,639.66 	"/>
	
		<linearGradient id="SVGID_6_" gradientUnits="userSpaceOnUse" x1="1754.1554" y1="63.4838" x2="1806.3362" y2="63.4838" gradientTransform="matrix(0.8658 0.0354 0.0354 0.788 235.6558 -56.787)">
		<stop  offset="0.0902" style="stop-color:#1E9CD7"/>
		<stop  offset="0.9037" style="stop-color:#FFFFFD"/>
	</linearGradient>
	<polygon class="st5" points="1784.54,77.73 1773.31,66.1 1757.18,67.13 1764.99,54.73 1757.59,40.95 1773.65,44.91 1785.21,35.36 
		1787.33,50.21 1801.87,58.09 1787.12,63.3 	"/>
	
		<linearGradient id="SVGID_7_" gradientUnits="userSpaceOnUse" x1="2705.739" y1="156.6129" x2="2782.906" y2="156.6129" gradientTransform="matrix(0.36 4.957023e-03 4.957023e-03 0.2778 790.1794 271.0633)">
		<stop  offset="0.0902" style="stop-color:#1E9CD7"/>
		<stop  offset="0.9037" style="stop-color:#FCFCFA"/>
	</linearGradient>
	<polygon class="st6" points="1786.69,338.68 1778.31,334.68 1769.51,337.65 1771.59,330.38 1764.95,324.74 1774.62,324.24 
		1779.32,317.79 1783.22,324.76 1792.76,326.41 1785.49,331.21 	"/>
	
		<linearGradient id="SVGID_8_" gradientUnits="userSpaceOnUse" x1="-1594.9796" y1="1324.4182" x2="-1517.8126" y2="1324.4182" gradientTransform="matrix(0.2358 -3.715812e-03 -3.715812e-03 0.2973 888.2455 389.9874)">
		<stop  offset="0.0902" style="stop-color:#1E9CD7"/>
		<stop  offset="0.9037" style="stop-color:#FCFCFA"/>
	</linearGradient>
	<polygon class="st7" points="521.22,800.63 515.82,796.56 509.98,799.95 511.53,792.12 507.32,786.25 513.67,785.47 516.91,778.45 
		519.29,785.81 525.5,787.34 520.62,792.66 	"/>
	
		<linearGradient id="SVGID_9_" gradientUnits="userSpaceOnUse" x1="444.7833" y1="858.3054" x2="521.9503" y2="858.3054" gradientTransform="matrix(0.2669 7.777818e-03 7.777818e-03 0.138 817.8653 525.9703)">
		<stop  offset="0.0902" style="stop-color:#1E9CD7"/>
		<stop  offset="0.9037" style="stop-color:#FCFCFA"/>
	</linearGradient>
	<polygon class="st8" points="959.46,653.48 953.19,651.37 946.71,652.71 948.15,649.13 943.15,646.24 950.31,646.13 953.7,643 
		956.68,646.52 963.78,647.48 958.47,649.75 	"/> -->
</g>
<g id="Balloon">
	<g id="Layer_4">
		<radialGradient id="SVGID_10_" cx="1395" cy="231" r="228.2025" gradientUnits="userSpaceOnUse">
			<stop  offset="0.0902" style="stop-color:#1E9CD7"/>
			<stop  offset="0.9037" style="stop-color:#00338C"/>
		</radialGradient>
		<ellipse class="st9" cx="1395" cy="231" rx="131" ry="150"/>
	</g>
	<ellipse class="st10" cx="1394.5" cy="235" rx="82.5" ry="103"/>
	<linearGradient id="SVGID_11_" gradientUnits="userSpaceOnUse" x1="1367.6523" y1="397.0733" x2="1435.7694" y2="397.0733">
		<stop  offset="0" style="stop-color:#FFFFFF"/>
		<stop  offset="1" style="stop-color:#000000"/>
	</linearGradient>
	<linearGradient id="SVGID_12_" gradientUnits="userSpaceOnUse" x1="1367.1523" y1="396.8947" x2="1436.2694" y2="396.8947">
		<stop  offset="0" style="stop-color:#FFFFFF"/>
		<stop  offset="1" style="stop-color:#070700"/>
	</linearGradient>
	<path class="st11" d="M1383.04,426.65l-15.39-51.67c-0.13-3.92,2.55-7.48,6.27-7.48h56.25c3.69,0,6.36,3.51,5.39,7.06l-12.63,46.19
		c-0.85,3.11-3.65,5.27-6.87,5.32L1383,426.5L1383.04,426.65z"/>
	<path class="st12" d="M1652.5,128.5"/>
	<path class="st13" d="M1437.5,367.5"/>
	<path class="st13" d="M1477.14,281.5"/>
	<linearGradient id="SVGID_13_" gradientUnits="userSpaceOnUse" x1="1402.0669" y1="334.5" x2="1402.0669" y2="334.5">
		<stop  offset="0" style="stop-color:#FFFFFF"/>
		<stop  offset="1" style="stop-color:#000000"/>
	</linearGradient>
	<linearGradient id="SVGID_14_" gradientUnits="userSpaceOnUse" x1="1402.0669" y1="334.5" x2="1402.0669" y2="334.5">
		<stop  offset="0" style="stop-color:#FFFFFF"/>
		<stop  offset="1" style="stop-color:#070700"/>
	</linearGradient>
	<path class="st14" d="M1402.07,334.5"/>
</g>
<g id="Mountain">
	<linearGradient id="SVGID_15_" gradientUnits="userSpaceOnUse" x1="1078.75" y1="1084" x2="1078.75" y2="941.041">
		<stop  offset="0.0902" style="stop-color:#1E9CD7"/>
		<stop  offset="0.9586" style="stop-color:#681E72"/>
	</linearGradient>
	<polygon class="st15" points="224.5,1076.97 583.63,862.98 660.69,940.34 889.36,716.31 1039.97,809.74 1246.98,883.07 
		1431.33,752.47 1698.28,324.5 1933,635.42 1932.5,1084 	"/>
</g>
<g id="Text">
</g>
</svg>
